<?xml version="1.0" standalone="no"?>
<!DOCTYPE svg PUBLIC "-//W3C//DTD SVG 20010904//EN"
 "http://www.w3.org/TR/2001/REC-SVG-20010904/DTD/svg10.dtd">
<svg version="1.0" xmlns="http://www.w3.org/2000/svg"
 width="512.000000pt" height="512.000000pt" viewBox="0 0 512.000000 512.000000"
 preserveAspectRatio="xMidYMid meet">
<metadata>
Created by potrace 1.11, written by Peter Selinger 2001-2013
</metadata>
<g transform="translate(0.000000,512.000000) scale(0.100000,-0.100000)"
fill="#000000" stroke="none">
<path d="M1239 5116 c-2 -2 -26 -6 -54 -10 -224 -27 -441 -128 -591 -274 -126
-123 -197 -260 -234 -452 -18 -90 -18 -181 -17 -1765 l2 -1670 25 -60 c46
-112 147 -189 263 -198 20 -2 39 -6 43 -10 4 -3 7 -97 9 -209 2 -182 4 -209
24 -260 29 -76 96 -149 163 -179 74 -32 231 -34 299 -3 88 41 142 106 180 219
8 27 14 105 15 235 1 107 2 197 3 200 2 8 2370 4 2378 -4 4 -4 8 -89 8 -189 1
-100 5 -200 10 -222 22 -104 86 -191 173 -232 50 -24 69 -27 157 -28 90 0 106
3 157 28 70 35 130 100 159 176 20 50 22 77 24 259 1 111 5 206 9 209 4 4 14
8 24 9 141 21 234 83 285 192 l22 47 2 1685 c1 1409 -1 1700 -12 1778 -16 100
-30 158 -50 207 -7 17 -16 41 -20 53 -25 82 -135 227 -225 297 -87 67 -243
138 -335 151 -16 3 -41 8 -55 11 -27 7 -2834 16 -2841 9z m2470 -521 c54 -27
58 -101 9 -138 -27 -20 -39 -20 -1158 -20 -1105 0 -1131 0 -1157 19 -33 25
-42 51 -31 91 17 66 -52 62 1187 62 942 0 1127 -2 1150 -14z m506 -514 c94
-33 160 -96 197 -191 21 -54 22 -66 24 -615 2 -584 -1 -637 -42 -717 -21 -41
-93 -118 -110 -118 -8 0 -14 -4 -14 -9 0 -4 -26 -16 -58 -25 -53 -14 -208 -16
-1658 -16 -1510 1 -1602 2 -1651 19 -104 36 -168 104 -202 217 -16 54 -18 107
-16 629 1 521 3 574 19 620 10 28 24 57 32 66 8 8 14 20 14 26 0 14 62 68 103
90 17 9 55 22 84 28 36 7 547 10 1645 10 1324 0 1600 -3 1633 -14z m-3108
-2385 c152 -34 266 -189 257 -349 -16 -295 -376 -429 -585 -216 -122 123 -125
336 -8 460 60 63 107 91 177 105 8 1 16 4 18 6 6 7 105 2 141 -6z m3073 -1
c147 -32 263 -185 255 -336 -5 -104 -34 -169 -109 -241 -179 -174 -490 -88
-557 153 -70 255 150 482 411 424z"/>
</g>
</svg>
